<svg width="552" height="295" viewBox="0 0 552 295" fill="none" xmlns="http://www.w3.org/2000/svg">
<path d="M0 266.934C0 266.934 28.0532 249.354 36 231.693C41.9924 218.375 44 196.451 44 196.451V58.4855C44 58.4855 45.2645 40.0968 50 29.2428C56.5275 14.2813 61.3739 10.838 81 5.2487C97.0634 0.673992 125 0 125 0H451C451 0 491.867 1.38582 513 7.49815C534.151 13.6159 535.694 13.4259 544 29.2428C550.868 42.3209 552 65.2339 552 65.2339V224.195C552 224.195 549.944 245.356 544 258.686C536.202 276.173 529.016 283.687 506 290.178C487.724 295.333 459 294.677 459 294.677H107C107 294.677 91.1073 295.404 81 294.677C46.3823 292.189 0 266.934 0 266.934Z" fill="#0B221D"/>
</svg>
